# xmcd CD database file
#
# Track frame offsets:
#	150
#	15640
#	31587
#	42442
#	60247
#	72887
#	94117
#	107737
#	119802
#	133042
#
# Disc length: 1931 seconds
#
# Revision: 2
# Processed by: cddbd v1.4PL0 Copyright (c) Steve Scherf et al.
# Submitted via: CDex 1.50
#
DISCID=8107890a
DTITLE=Various Artist - Keep On dancin'
DYEAR=1995
DGENRE=Country
TTITLE0=American Honky Tonk Bar Association
TTITLE1=Move Over Madonna
TTITLE2=If The Good Die Young
TTITLE3=He Thinks He'll Keep Her
TTITLE4=Third Rock From The Sun
TTITLE5=Fast As You
TTITLE6=Watermelon Crawl
TTITLE7=Wink
TTITLE8=That's My Story
TTITLE9=If Bubba Can Dance
EXTD=YEAR: 1995
EXTT0=
EXTT1=
EXTT2=
EXTT3=
EXTT4=
EXTT5=
EXTT6=
EXTT7=
EXTT8=
EXTT9=
PLAYORDER=
